<?xml version="1.0" encoding="UTF-8"?>
<svg width="512px" height="512px" viewBox="0 0 512 512" version="1.1" xmlns="http://www.w3.org/2000/svg" xmlns:xlink="http://www.w3.org/1999/xlink">
    <title>block-loader-icon</title>
    <g id="Page-1" stroke="none" stroke-width="1" fill="none" fill-rule="evenodd">
        <path d="M240.64,0.877999719 C207.706,2.70099972 175.809,10.9649997 145.493,25.5279997 C119.14,38.1879997 98.7900003,52.4269997 77.7680003,72.9159997 C45.7370003,104.134 23.9490003,140.11 10.8140003,183.467 C-2.90299972,228.747 -2.90099972,283.127 10.8210003,328.533 C21.2580003,363.069 37.7990003,393.817 60.3990003,420.693 C69.1470003,431.097 86.0580003,447.574 96.4270003,455.798 C146.232,495.3 207.046,514.642 270.193,511.065 C305.459,509.067 335.37,501.43 366.507,486.472 C392.86,473.812 413.21,459.573 434.232,439.084 C497.658,377.268 524.068,289.851 505.909,201.833 C499.365,170.113 483.949,135.262 464.191,107.52 C451.601,89.8419997 432.297,69.4659997 415.573,56.2019997 C365.49,16.4789997 304.909,-2.68000028 240.64,0.877999719" id="Shape" fill="#4D84D3" fill-rule="nonzero"></path>
        <g id="Forklift" transform="translate(74.000000, 188.000000)">
            <rect id="Rectangle" stroke="#FFFFFF" stroke-width="15" x="46" y="0" width="91" height="117" rx="12"></rect>
            <rect id="Rectangle" fill="#FFFFFF" x="7" y="79" width="130" height="86" rx="8"></rect>
            <circle id="Oval" fill="#4D84D3" fill-rule="nonzero" cx="139" cy="153" r="47"></circle>
            <circle id="Oval" fill="#4D84D3" fill-rule="nonzero" cx="29" cy="165" r="29"></circle>
            <circle id="Oval" fill="#FFFFFF" fill-rule="nonzero" cx="139.5" cy="153.5" r="36.5"></circle>
            <path d="M28.9839123,143.065333 C41.1252919,143.065333 50.9678247,152.900443 50.9678247,165.032667 C50.9678247,177.16489 41.1252919,187 28.9839123,187 C16.8425328,187 7,177.16489 7,165.032667 C7,152.900443 16.8425328,143.065333 28.9839123,143.065333 Z M165.428989,162.24015 C163.772135,162.24015 162.428989,160.897004 162.428989,159.24015 L162.428989,153.207069 C162.428989,152.141532 162.984499,151.205741 163.821707,150.673508 L163.821441,10 C163.821441,8.8954305 164.716871,8 165.821441,8 L173.863602,8 C174.968172,8 175.863602,8.8954305 175.863602,10 L175.863,150.207 L260,150.207069 C261.656854,150.207069 263,151.550215 263,153.207069 L263,159.24015 C263,160.897004 261.656854,162.24015 260,162.24015 L165.428989,162.24015 Z" id="Oval-2" fill="#FFFFFF" fill-rule="nonzero"></path>
        </g>
        <rect id="Rectangle" stroke="#FFFFFF" stroke-width="11" x="267" y="139" width="180" height="180" rx="22"></rect>
    </g>
</svg>